<svg version="1.1" id="Layer_1" xmlns="http://www.w3.org/2000/svg" xmlns:xlink="http://www.w3.org/1999/xlink" x="0px" y="0px"
	 width="100%" viewBox="0 0 386 310" enable-background="new 0 0 386 310" xml:space="preserve">
<path fill="#000000" opacity="1.000000" stroke="none" 
	d="
M272.000000,311.000000 
	C181.333344,311.000000 91.166702,311.000000 1.000036,311.000000 
	C1.000024,207.666702 1.000024,104.333405 1.000012,1.000078 
	C129.666611,1.000052 258.333221,1.000052 386.999878,1.000026 
	C386.999908,104.333260 386.999908,207.666519 386.999939,310.999878 
	C348.833344,311.000000 310.666656,311.000000 272.000000,311.000000 
M187.067551,176.028320 
	C187.067551,176.028320 187.091171,176.088501 187.725815,175.650757 
	C189.093292,171.644119 190.460785,167.637482 191.844162,163.584305 
	C187.785767,163.229233 185.181519,166.406174 183.959198,172.972916 
	C183.959198,172.972916 183.947830,172.931015 183.274979,173.401398 
	C183.248108,175.611115 183.221252,177.820816 183.073730,180.794174 
	C184.367386,183.869736 185.661026,186.945312 187.038101,190.722427 
	C190.016190,193.170135 192.994278,195.617844 196.362305,198.707458 
	C205.870834,203.105865 214.373901,201.429886 221.989426,194.451096 
	C228.529373,188.457901 231.193497,178.162094 227.874283,171.482071 
	C227.598175,171.292480 227.322067,171.102890 227.007019,170.979340 
	C227.007019,170.979340 227.074493,170.942947 227.012100,170.204315 
	C225.683945,168.103622 224.355774,166.002930 222.764816,163.288574 
	C220.190308,161.515518 217.615799,159.742447 214.665970,157.327118 
	C212.134415,155.812744 206.807266,157.103195 208.410324,151.181717 
	C211.375702,151.833725 214.157379,152.445343 217.287781,153.650681 
	C219.846207,155.461212 222.404633,157.271744 225.245911,159.696503 
	C227.165695,162.484055 229.085480,165.271591 231.020645,168.853836 
	C231.735611,171.578308 232.450577,174.302795 233.036499,177.665848 
	C233.085190,178.095306 233.133881,178.524750 233.021667,179.431183 
	C233.005814,179.598221 232.989975,179.765274 232.544006,180.119125 
	C232.206894,180.299316 232.109055,180.566956 232.076767,181.458221 
	C232.114929,181.642151 232.153107,181.826096 232.033829,182.763611 
	C230.240509,188.386887 228.805771,194.390793 223.541962,197.846848 
	C219.290466,200.638275 214.515747,202.632812 209.075027,204.988998 
	C201.243698,205.873550 194.555542,202.769058 187.814529,198.345688 
	C186.157532,196.234818 184.500534,194.123947 182.889053,191.492096 
	C182.613571,191.298111 182.338104,191.104126 182.036209,190.947342 
	C182.036209,190.947342 182.075943,190.919754 181.779526,190.222763 
	C178.771301,183.591553 177.745102,176.635208 180.283020,169.790543 
	C181.828415,165.622635 184.728836,161.957138 187.671173,157.642441 
	C187.615540,154.323669 189.229446,152.958267 192.358444,151.495209 
	C195.419479,150.063965 198.645370,146.803497 199.647736,143.660019 
	C201.169952,138.886185 200.833633,133.519699 201.324860,127.975082 
	C203.272186,127.121437 207.626877,129.534988 209.258057,123.894203 
	C205.173141,123.894203 201.604355,123.894203 197.968964,123.189819 
	C197.299286,121.972694 196.629593,120.755569 195.993927,119.600250 
	C204.018799,112.783295 206.533981,105.310287 203.919235,96.236168 
	C202.546707,93.495392 201.174194,90.754616 199.627197,87.362480 
	C195.549606,85.148140 191.343826,83.130653 187.468109,80.606354 
	C186.212509,79.788544 185.822067,77.642418 185.618149,75.725273 
	C185.780014,74.822243 185.941879,73.919212 186.643906,72.707634 
	C187.139694,71.810921 187.635468,70.914207 188.712646,69.712021 
	C190.955734,67.485359 193.276245,65.330536 195.424347,63.015732 
	C198.931641,59.236290 198.423218,55.508862 193.586273,51.272179 
	C187.812332,48.984398 182.823135,49.879292 178.164246,54.248486 
	C172.643631,59.425812 170.895584,65.761803 171.047852,73.824318 
	C171.047852,75.805763 171.047852,77.787209 171.047852,79.768654 
	C170.492157,79.920776 169.936462,80.072906 169.380768,80.225029 
	C168.535156,78.831314 167.689545,77.437607 166.759689,75.377014 
	C165.601059,74.182541 164.455109,72.975471 163.281769,71.795639 
	C156.098984,64.573174 149.634903,63.221626 140.444321,67.009346 
	C135.379639,69.096649 132.865997,76.422363 136.620819,79.639420 
	C138.908371,81.599358 142.552261,82.061295 145.654404,82.964272 
	C149.708298,84.144295 153.828918,85.095139 157.799057,86.637833 
	C157.521561,87.056839 157.244080,87.475845 156.364334,88.247787 
	C155.711731,89.179611 155.127655,90.169411 154.395767,91.034126 
	C148.175629,98.383179 148.379471,108.814056 154.953415,116.022469 
	C154.953415,116.022469 154.894638,116.024803 154.977493,116.640610 
	C155.325500,117.038612 155.673523,117.436615 156.643707,118.147408 
	C160.746582,120.129959 164.849457,122.112511 168.973602,124.833458 
	C168.321320,126.593987 167.669037,128.354507 166.198700,130.011902 
	C163.576462,129.831833 160.954208,129.651779 158.331970,129.471710 
	C158.217377,130.125076 158.102768,130.778458 157.988174,131.431824 
	C161.306686,132.344162 164.625198,133.256500 167.981415,134.995575 
	C168.150162,136.615768 168.094498,138.298981 168.528702,139.844604 
	C169.968033,144.968002 174.147552,149.450882 172.096512,155.394150 
	C172.081192,155.438583 172.624054,155.675629 173.311874,156.034119 
	C174.087021,154.963196 174.721558,153.621918 175.763977,152.794617 
	C176.585815,152.142395 177.909943,152.123093 179.467926,151.947006 
	C179.467926,151.947006 179.933121,152.035675 180.193146,152.598755 
	C180.781952,152.671646 181.370758,152.744537 182.728195,152.953522 
	C183.455643,153.961426 184.183105,154.969315 184.300201,156.253723 
	C173.808609,165.736404 172.046509,182.483185 179.231171,193.735352 
	C181.494171,196.430496 183.757156,199.125641 186.650467,202.109756 
	C188.755249,203.444077 190.860016,204.778397 193.359802,206.777176 
	C194.909164,207.181290 196.447784,207.878220 198.009903,207.935562 
	C203.042282,208.120316 208.083328,208.069336 213.878464,208.007462 
	C225.461807,205.760376 236.326706,192.570358 236.962814,180.137405 
	C236.243683,176.099960 235.524551,172.062515 234.950790,167.308090 
	C233.241348,164.539520 231.531906,161.770950 229.873871,158.488190 
	C229.595901,158.307220 229.317932,158.126251 229.009659,157.983170 
	C229.009659,157.983170 229.047867,157.950745 228.791000,157.325806 
	C225.208405,154.870544 221.625824,152.415268 217.632431,149.314758 
	C213.395615,148.378662 209.158783,147.442551 204.150101,146.335892 
	C204.150101,153.532013 204.150101,159.778458 204.033951,166.819748 
	C203.680374,169.936813 203.195786,173.046906 203.028870,176.173935 
	C202.946259,177.721664 203.139145,179.463287 203.834885,180.787491 
	C204.123718,181.337189 206.746277,181.512909 207.099854,181.009842 
	C208.006058,179.720535 208.633530,177.958267 208.645096,176.379776 
	C208.664185,173.773438 208.110855,171.162903 207.627686,167.124100 
	C210.673325,169.393509 212.438599,170.708878 214.214996,172.600525 
	C214.542206,173.065277 214.869400,173.530029 215.120712,174.516800 
	C215.400223,174.711472 215.679749,174.906128 216.034088,175.928268 
	C216.442520,180.949539 214.665039,184.986786 210.126709,187.270950 
	C206.810638,188.939957 203.186111,190.470108 199.804916,186.412842 
	C198.583008,185.264343 197.361099,184.115829 196.028351,182.083511 
	C196.446442,177.466736 196.864517,172.849976 197.374786,167.215271 
	C191.363388,171.675430 189.958832,176.453110 192.038330,182.802780 
	C194.370819,185.471283 196.703323,188.139786 199.730408,191.182373 
	C200.973312,191.489532 202.218918,191.786240 203.458664,192.105667 
	C208.655319,193.444534 214.905746,190.977783 217.823441,186.429794 
	C221.950424,179.996796 221.792282,176.519775 217.017715,170.228088 
	C214.044678,168.132294 211.071655,166.036514 208.028946,163.156067 
	C207.691803,158.141602 210.742691,160.305161 213.639206,161.093994 
	C216.061554,163.072113 218.483887,165.050232 221.194153,167.670410 
	C222.108002,169.461746 223.021835,171.253082 224.047745,173.544098 
	C224.099777,173.706680 224.151810,173.869247 224.048584,174.761078 
	C224.095108,175.502945 224.141632,176.244797 224.057129,177.657104 
	C224.101501,178.108170 224.145889,178.559235 224.032867,179.745087 
	C224.079620,180.491669 224.126373,181.238266 223.875687,182.656387 
	C216.333450,196.579147 208.465454,199.850662 195.404404,193.930954 
	C193.535355,191.976669 191.666306,190.022400 189.728378,187.330414 
	C188.834534,184.840942 187.940689,182.351486 187.017609,179.227341 
	C186.955688,178.809494 186.893784,178.391663 186.970795,177.333954 
	C187.024521,176.900558 187.078247,176.467163 187.067551,176.028320 
M89.666489,248.320572 
	C88.775299,247.201782 87.884109,246.082993 87.009743,244.985321 
	C92.582779,239.947784 91.174080,231.118668 83.547791,229.238190 
	C78.099236,227.894714 72.258873,228.140152 66.099586,227.636215 
	C66.099586,239.137695 66.240730,249.713089 66.025482,260.281250 
	C65.946762,264.145996 67.473129,265.267456 71.027718,264.999756 
	C73.832886,264.788483 76.681740,265.145325 79.484856,264.920929 
	C87.307907,264.294556 94.033752,258.868622 89.666489,248.320572 
M277.983276,256.581055 
	C277.177338,252.729187 276.371399,248.877335 275.841949,246.346970 
	C276.118683,241.263275 277.814484,236.379715 276.133179,233.404633 
	C274.539978,230.585403 269.529541,229.369827 265.786072,228.210556 
	C263.363342,227.460266 260.502747,228.252792 257.863281,228.042130 
	C254.200089,227.749756 252.818771,229.130859 252.957901,232.877991 
	C253.204117,239.509476 253.071808,246.156067 253.051208,252.796188 
	C253.013031,265.102081 252.998886,265.021301 265.409454,264.999756 
	C271.254761,264.989594 275.496155,262.718262 277.983276,256.581055 
M156.896042,236.038589 
	C152.956543,228.523361 148.182159,226.366684 140.041931,228.029510 
	C132.843536,229.499969 130.079544,234.541336 128.430969,241.011230 
	C125.283180,253.364761 131.741653,263.949158 143.462357,265.194244 
	C152.791702,266.185303 157.769089,261.897827 157.801468,252.714920 
	C157.808289,250.779922 157.693863,247.256805 157.146744,247.157532 
	C152.575043,246.327866 147.889099,246.127762 142.769867,245.698578 
	C143.079010,248.097107 143.258392,249.488937 143.432297,250.838242 
	C146.493988,250.976746 149.104431,251.094833 151.861465,251.219543 
	C151.903534,254.802063 153.229935,258.526581 148.784622,259.927460 
	C143.505890,261.590973 138.427231,259.776917 136.317078,255.755569 
	C133.764145,250.890427 133.284546,245.923492 134.862213,240.539871 
	C135.958420,236.799225 137.504715,233.774872 141.516693,233.047699 
	C145.945007,232.245071 149.599701,233.558533 151.982712,237.763977 
	C152.534241,238.737320 153.927933,239.233475 154.934113,239.949234 
	C155.607819,238.910355 156.281525,237.871475 156.896042,236.038589 
M192.907059,230.450775 
	C188.263641,226.769272 182.779663,228.530334 177.632721,228.056442 
	C174.178497,227.738419 172.883316,229.083817 172.952347,232.598495 
	C173.132217,241.755356 173.167908,250.920456 172.984863,260.076721 
	C172.897690,264.437408 174.493881,265.810730 178.985123,264.396362 
	C178.985123,261.069519 178.769028,257.743378 179.081100,254.467545 
	C179.225662,252.950134 180.641342,250.213028 181.065079,250.290878 
	C183.099014,250.664627 185.586548,251.319763 186.801620,252.792130 
	C188.927567,255.368240 190.621292,258.472687 191.796875,261.617188 
	C193.209259,265.395142 195.584412,265.449005 199.075073,264.448853 
	C196.637512,259.480499 194.274048,254.663177 191.949432,249.925018 
	C199.915329,241.386734 199.064117,235.564514 192.907059,230.450775 
M235.812424,250.693588 
	C233.342361,244.127380 231.005951,237.505005 228.290710,231.041809 
	C227.740143,229.731277 225.769333,228.277985 224.435349,228.260513 
	C223.284515,228.245438 221.647522,229.967438 221.035629,231.294922 
	C219.610580,234.386581 218.717163,237.719345 217.530304,240.925522 
	C214.651886,248.701248 211.728928,256.460480 208.807236,264.270966 
	C213.249878,266.150177 215.072845,264.070953 215.905777,260.494507 
	C216.706268,257.057373 218.578613,255.378983 222.258728,255.962753 
	C223.554688,256.168304 224.932846,256.090790 226.244370,255.919525 
	C230.401276,255.376770 233.174561,256.398834 233.736069,261.197632 
	C234.263870,265.708221 237.018585,265.735565 240.627365,263.918793 
	C239.015396,259.646545 237.474411,255.562439 235.812424,250.693588 
M341.001099,228.175430 
	C332.851593,228.137009 324.699707,227.994247 316.555267,228.178894 
	C315.407440,228.204910 314.295868,229.830109 313.167542,230.715088 
	C314.245331,231.471863 315.235809,232.634491 316.421539,232.889648 
	C318.171722,233.266266 320.167572,232.632309 321.854858,233.125931 
	C323.066040,233.480270 324.811188,234.953232 324.835510,235.962845 
	C325.063080,245.419739 324.970459,254.884338 324.970459,264.557709 
	C329.015778,265.735870 331.151947,264.916107 331.025940,260.026428 
	C330.796326,251.117950 330.960663,242.199310 330.960663,232.903076 
	C334.918640,232.903076 338.189606,232.903076 341.745148,232.903076 
	C341.745148,231.241776 341.745148,229.972260 341.001099,228.175430 
M113.230415,238.266235 
	C105.003601,237.728561 105.005409,237.728561 105.019173,245.862701 
	C105.025894,249.835541 105.018265,253.808395 105.027969,257.781219 
	C105.047287,265.685669 105.695999,266.172150 113.792519,264.188812 
	C113.792519,255.822678 113.792519,247.405640 113.230415,238.266235 
M291.999268,252.472198 
	C291.997559,254.132431 291.994659,255.792679 291.994324,257.452911 
	C291.992889,265.022705 292.712769,265.623657 300.711792,264.474945 
	C300.711792,256.139679 300.711792,247.766693 300.711792,239.426163 
	C292.280853,238.408707 292.278534,238.408646 292.097565,246.019485 
	C292.054169,247.843979 292.031616,249.668991 291.999268,252.472198 
M299.881104,228.419907 
	C297.584686,228.488342 295.288269,228.556778 292.991882,228.625229 
	C293.134033,230.693619 292.550537,233.912003 293.585632,234.565140 
	C295.202545,235.585388 298.298798,235.608536 300.065643,234.695084 
	C302.166748,233.608826 302.796936,231.055786 299.881104,228.419907 
M109.406029,227.050812 
	C107.933861,228.444611 105.869110,229.609909 105.210632,231.317505 
	C104.812317,232.350403 106.688179,235.536652 107.380196,235.487198 
	C110.024323,235.298279 112.602715,234.189438 115.205658,233.424118 
	C115.263283,232.794769 115.320908,232.165405 115.378540,231.536057 
	C113.650558,230.047592 111.922585,228.559113 109.406029,227.050812 
z"/>
<path fill="#14B1AE" opacity="1.000000" stroke="none" 
	d="
M89.811058,248.680847 
	C94.033752,258.868622 87.307907,264.294556 79.484856,264.920929 
	C76.681740,265.145325 73.832886,264.788483 71.027718,264.999756 
	C67.473129,265.267456 65.946762,264.145996 66.025482,260.281250 
	C66.240730,249.713089 66.099586,239.137695 66.099586,227.636215 
	C72.258873,228.140152 78.099236,227.894714 83.547791,229.238190 
	C91.174080,231.118668 92.582779,239.947784 87.009743,244.985321 
	C87.884109,246.082993 88.775299,247.201782 89.811058,248.680847 
M75.496376,248.004700 
	C73.180496,247.746490 71.710663,248.244720 71.923927,251.115860 
	C72.138374,254.002777 71.971100,256.918060 71.971100,260.039734 
	C74.843315,260.039734 76.982414,260.114990 79.114365,260.023529 
	C83.124611,259.851501 85.224541,257.153961 85.017464,253.165771 
	C84.696503,246.984329 79.906029,248.650513 75.496376,248.004700 
M71.976189,234.751816 
	C71.976189,237.356049 71.976189,239.960266 71.976189,243.023651 
	C74.917877,243.023651 77.536507,243.568146 79.750626,242.855606 
	C81.604362,242.259048 84.003082,240.364243 84.277077,238.728745 
	C84.528999,237.224960 82.562248,234.203690 81.051308,233.799164 
	C78.273232,233.055405 75.112061,233.742538 71.976189,234.751816 
z"/>
<path fill="#13B3B0" opacity="1.000000" stroke="none" 
	d="
M277.967712,256.960144 
	C275.496155,262.718262 271.254761,264.989594 265.409454,264.999756 
	C252.998886,265.021301 253.013031,265.102081 253.051208,252.796188 
	C253.071808,246.156067 253.204117,239.509476 252.957901,232.877991 
	C252.818771,229.130859 254.200089,227.749756 257.863281,228.042130 
	C260.502747,228.252792 263.363342,227.460266 265.786072,228.210556 
	C269.529541,229.369827 274.539978,230.585403 276.133179,233.404633 
	C277.814484,236.379715 276.118683,241.263275 275.841949,246.346970 
	C276.371399,248.877335 277.177338,252.729187 277.967712,256.960144 
M260.691620,260.001190 
	C262.841156,260.006256 265.002716,260.157684 267.137512,259.982819 
	C270.495880,259.707764 272.670807,257.746124 272.908569,254.417694 
	C273.128601,251.337738 271.668732,248.970673 268.279449,248.586853 
	C265.290833,248.248413 262.275116,248.149185 258.586609,247.897644 
	C259.042236,252.467239 259.409882,256.154510 260.691620,260.001190 
M261.627289,243.030014 
	C263.290527,243.029770 265.182281,243.534103 266.562531,242.909042 
	C268.549988,242.009018 271.409973,240.438126 271.598602,238.875977 
	C271.797089,237.231812 269.649780,234.350342 267.878662,233.649857 
	C265.328735,232.641357 262.192688,233.114792 257.991791,232.883301 
	C259.081757,236.943008 259.894043,239.968475 261.627289,243.030014 
z"/>
<path fill="#17B1AF" opacity="1.000000" stroke="none" 
	d="
M156.925629,236.435593 
	C156.281525,237.871475 155.607819,238.910355 154.934113,239.949219 
	C153.927933,239.233475 152.534241,238.737320 151.982712,237.763977 
	C149.599701,233.558533 145.945007,232.245071 141.516693,233.047699 
	C137.504715,233.774872 135.958420,236.799225 134.862213,240.539871 
	C133.284546,245.923492 133.764145,250.890427 136.317078,255.755569 
	C138.427231,259.776917 143.505890,261.590973 148.784622,259.927460 
	C153.229935,258.526581 151.903534,254.802063 151.861465,251.219543 
	C149.104431,251.094833 146.493988,250.976746 143.432297,250.838242 
	C143.258392,249.488937 143.079010,248.097107 142.769867,245.698578 
	C147.889099,246.127762 152.575043,246.327866 157.146744,247.157532 
	C157.693863,247.256805 157.808289,250.779922 157.801468,252.714920 
	C157.769089,261.897827 152.791702,266.185303 143.462357,265.194244 
	C131.741653,263.949158 125.283180,253.364761 128.430969,241.011230 
	C130.079544,234.541336 132.843536,229.499969 140.041931,228.029510 
	C148.182159,226.366684 152.956543,228.523361 156.925629,236.435593 
z"/>
<path fill="#11B3AF" opacity="1.000000" stroke="none" 
	d="
M193.207611,230.700958 
	C199.064117,235.564514 199.915329,241.386734 191.949432,249.925018 
	C194.274048,254.663177 196.637512,259.480499 199.075073,264.448853 
	C195.584412,265.449005 193.209259,265.395142 191.796875,261.617188 
	C190.621292,258.472687 188.927567,255.368240 186.801620,252.792130 
	C185.586548,251.319763 183.099014,250.664627 181.065079,250.290878 
	C180.641342,250.213028 179.225662,252.950134 179.081100,254.467545 
	C178.769028,257.743378 178.985123,261.069519 178.985123,264.396362 
	C174.493881,265.810730 172.897690,264.437408 172.984863,260.076721 
	C173.167908,250.920456 173.132217,241.755356 172.952347,232.598495 
	C172.883316,229.083817 174.178497,227.738419 177.632721,228.056442 
	C182.779663,228.530334 188.263641,226.769272 193.207611,230.700958 
M188.655975,244.770508 
	C191.356094,242.221191 193.359207,239.197647 190.869949,235.717361 
	C187.835052,231.474152 183.338943,233.038620 179.233215,233.367157 
	C179.233215,237.363678 179.233215,240.971130 179.233215,244.984497 
	C182.256256,244.984497 185.041550,244.984497 188.655975,244.770508 
z"/>
<path fill="#16B2AF" opacity="1.000000" stroke="none" 
	d="
M235.872925,251.085968 
	C237.474411,255.562439 239.015396,259.646545 240.627365,263.918793 
	C237.018585,265.735565 234.263870,265.708221 233.736069,261.197632 
	C233.174561,256.398834 230.401276,255.376770 226.244370,255.919525 
	C224.932846,256.090790 223.554688,256.168304 222.258728,255.962753 
	C218.578613,255.378983 216.706268,257.057373 215.905777,260.494507 
	C215.072845,264.070953 213.249878,266.150177 208.807236,264.270966 
	C211.728928,256.460480 214.651886,248.701248 217.530304,240.925522 
	C218.717163,237.719345 219.610580,234.386581 221.035629,231.294922 
	C221.647522,229.967438 223.284515,228.245438 224.435349,228.260513 
	C225.769333,228.277985 227.740143,229.731277 228.290710,231.041809 
	C231.005951,237.505005 233.342361,244.127380 235.872925,251.085968 
M223.288773,250.915863 
	C225.352798,250.513977 227.416809,250.112091 229.569992,249.692841 
	C228.186371,245.809753 226.803299,241.928177 224.983658,236.821381 
	C223.027481,241.625290 221.457870,245.262100 220.168381,248.995667 
	C220.044357,249.354767 221.661896,250.315353 223.288773,250.915863 
z"/>
<path fill="#14B1AE" opacity="1.000000" stroke="none" 
	d="
M341.373108,228.439087 
	C341.745148,229.972260 341.745148,231.241776 341.745148,232.903076 
	C338.189606,232.903076 334.918640,232.903076 330.960663,232.903076 
	C330.960663,242.199310 330.796326,251.117950 331.025940,260.026428 
	C331.151947,264.916107 329.015778,265.735870 324.970459,264.557709 
	C324.970459,254.884338 325.063080,245.419739 324.835510,235.962845 
	C324.811188,234.953232 323.066040,233.480270 321.854858,233.125931 
	C320.167572,232.632309 318.171722,233.266266 316.421539,232.889648 
	C315.235809,232.634491 314.245331,231.471863 313.167542,230.715088 
	C314.295868,229.830109 315.407440,228.204910 316.555267,228.178894 
	C324.699707,227.994247 332.851593,228.137009 341.373108,228.439087 
z"/>
<path fill="#2FA19A" opacity="1.000000" stroke="none" 
	d="
M179.010971,151.822662 
	C177.909943,152.123093 176.585815,152.142395 175.763977,152.794617 
	C174.721558,153.621918 174.087021,154.963196 173.311874,156.034119 
	C172.624054,155.675629 172.081192,155.438583 172.096512,155.394150 
	C174.147552,149.450882 169.968033,144.968002 168.528702,139.844604 
	C168.094498,138.298981 168.150162,136.615768 167.837341,134.255829 
	C167.467758,132.382385 167.242264,131.248718 167.016769,130.115036 
	C167.669037,128.354507 168.321320,126.593987 168.975510,124.103760 
	C168.991425,122.652428 169.005432,121.930779 169.476929,121.133789 
	C174.846161,120.719109 179.861862,120.898224 184.649155,119.938339 
	C196.596451,117.542839 200.865402,112.781525 201.960663,100.762939 
	C201.702057,99.627266 201.439575,98.817467 201.117432,97.678993 
	C201.008682,96.908157 200.959595,96.465996 201.214355,96.063995 
	C202.279327,96.390778 203.040405,96.677383 203.801498,96.963997 
	C206.533981,105.310287 204.018799,112.783295 195.993927,119.600250 
	C196.629593,120.755569 197.299286,121.972694 198.000000,123.910423 
	C197.745377,126.424080 197.459686,128.217133 197.092194,129.642273 
	C195.686569,125.792412 194.952209,121.412041 189.808044,122.147552 
	C184.010590,122.976456 178.291656,124.354591 172.485504,125.504349 
	C168.501923,135.006470 172.494247,145.051407 179.025909,149.262726 
	C179.015503,150.359787 179.013229,151.091232 179.010971,151.822662 
z"/>
<path fill="#10B4AF" opacity="1.000000" stroke="none" 
	d="
M113.511467,238.627411 
	C113.792519,247.405640 113.792519,255.822678 113.792519,264.188812 
	C105.695999,266.172150 105.047287,265.685669 105.027969,257.781219 
	C105.018265,253.808395 105.025894,249.835541 105.019173,245.862701 
	C105.005409,237.728561 105.003601,237.728561 113.511467,238.627411 
z"/>
<path fill="#278F85" opacity="1.000000" stroke="none" 
	d="
M156.966583,87.894852 
	C157.244080,87.475845 157.521561,87.056839 158.023682,86.118668 
	C158.874893,85.045944 159.501465,84.492393 160.481445,83.942413 
	C162.528458,83.135757 164.222061,82.325531 165.901016,81.522308 
	C165.536774,80.218094 165.242599,79.164742 165.031952,77.821823 
	C165.691620,77.036133 166.267776,76.540009 166.843933,76.043892 
	C167.689545,77.437607 168.535156,78.831314 169.380768,80.225029 
	C169.936462,80.072906 170.492157,79.920776 171.047852,79.768654 
	C171.047852,77.787209 171.047852,75.805763 171.258499,73.207863 
	C171.774124,72.139519 172.079117,71.687637 172.527390,71.023422 
	C173.051086,72.659035 173.430267,73.843285 173.873795,75.443893 
	C173.543365,78.729591 175.266098,79.497772 177.501953,78.891411 
	C179.100983,78.457756 180.854385,77.521858 181.863831,76.266998 
	C183.028336,74.819427 183.450897,72.774994 184.350189,70.830360 
	C184.696045,70.442253 184.853088,70.192032 184.979889,69.947533 
	C184.983917,69.974747 184.937393,69.944672 185.336639,69.956055 
	C186.534332,69.984131 187.332779,70.000809 188.131241,70.017487 
	C187.635468,70.914207 187.139694,71.810921 186.149292,73.113342 
	C185.448395,74.380669 185.242126,75.242287 185.035873,76.103897 
	C185.822067,77.642418 186.212509,79.788544 187.468109,80.606354 
	C191.343826,83.130653 195.549606,85.148140 199.323700,87.684799 
	C197.978271,88.014931 196.936310,88.022751 195.580307,87.876892 
	C191.078079,85.893837 187.222015,83.892593 182.291260,83.294044 
	C178.673645,82.854904 176.551926,81.695358 174.881836,85.840027 
	C173.543839,84.861008 172.440811,84.053909 171.117493,83.085632 
	C170.260513,84.813751 169.567764,86.210670 168.875031,87.607590 
	C168.657837,87.114723 168.440643,86.621849 168.223450,86.128983 
	C166.554581,86.501770 164.733826,86.574524 163.255173,87.323051 
	C161.393387,88.265526 159.811172,89.760277 157.885071,90.758865 
	C157.430054,89.632286 157.198318,88.763565 156.966583,87.894852 
z"/>
<path fill="#0DB7B4" opacity="1.000000" stroke="none" 
	d="
M291.999359,251.982971 
	C292.031616,249.668991 292.054169,247.843979 292.097565,246.019485 
	C292.278534,238.408646 292.280853,238.408707 300.711792,239.426163 
	C300.711792,247.766693 300.711792,256.139679 300.711792,264.474945 
	C292.712769,265.623657 291.992889,265.022705 291.994324,257.452911 
	C291.994659,255.792679 291.997559,254.132431 291.999359,251.982971 
z"/>
<path fill="#36C6C7" opacity="1.000000" stroke="none" 
	d="
M227.813583,171.996140 
	C231.193497,178.162094 228.529373,188.457901 221.989426,194.451096 
	C214.373901,201.429886 205.870834,203.105865 196.177689,198.003448 
	C196.005814,196.277649 196.018570,195.255859 196.031311,194.234085 
	C208.465454,199.850662 216.333450,196.579147 224.184174,182.097321 
	C224.391876,180.695587 224.291077,179.852951 224.190277,179.010300 
	C224.145889,178.559235 224.101501,178.108170 224.284424,177.099548 
	C224.409088,175.705261 224.306458,174.868546 224.203827,174.031815 
	C224.151810,173.869247 224.099777,173.706680 224.232880,173.081543 
	C225.303497,172.060303 226.188995,171.501617 227.074493,170.942947 
	C227.074493,170.942947 227.007019,170.979340 227.113586,171.153381 
	C227.379257,171.584656 227.577072,171.807571 227.813583,171.996140 
z"/>
<path fill="#2B8276" opacity="1.000000" stroke="none" 
	d="
M166.801819,75.710449 
	C166.267776,76.540009 165.691620,77.036133 164.731979,77.653763 
	C158.171051,68.736565 149.155365,65.454369 142.644623,69.905151 
	C140.733200,71.211815 139.538773,73.567314 138.015732,75.442116 
	C139.785248,76.643288 141.401276,78.295731 143.353500,78.959709 
	C148.871231,80.836357 154.526779,82.307770 160.128036,83.938843 
	C159.501465,84.492393 158.874893,85.045944 158.084564,85.872040 
	C153.828918,85.095139 149.708298,84.144295 145.654404,82.964272 
	C142.552261,82.061295 138.908371,81.599358 136.620819,79.639420 
	C132.865997,76.422363 135.379639,69.096649 140.444321,67.009346 
	C149.634903,63.221626 156.098984,64.573174 163.281769,71.795639 
	C164.455109,72.975471 165.601059,74.182541 166.801819,75.710449 
z"/>
<path fill="#33A9A3" opacity="1.000000" stroke="none" 
	d="
M197.173996,130.010193 
	C197.459686,128.217133 197.745377,126.424080 198.033310,124.262619 
	C201.604355,123.894203 205.173141,123.894203 209.258057,123.894203 
	C207.626877,129.534988 203.272186,127.121437 201.324860,127.975082 
	C200.833633,133.519699 201.169952,138.886185 199.647736,143.660019 
	C198.645370,146.803497 195.419479,150.063965 192.358444,151.495209 
	C189.229446,152.958267 187.615540,154.323669 187.195755,157.591782 
	C186.117081,157.019821 185.513809,156.498520 184.910553,155.977219 
	C184.183105,154.969315 183.455643,153.961426 182.121643,152.720856 
	C180.987762,152.337341 180.460434,152.186508 179.933121,152.035675 
	C179.933121,152.035675 179.467926,151.947006 179.239441,151.884827 
	C179.013229,151.091232 179.015503,150.359787 179.441544,149.313019 
	C192.603134,149.764160 195.451660,148.257202 197.570282,138.626129 
	C198.166794,135.914429 197.345154,132.890762 197.173996,130.010193 
M200.527832,125.500526 
	C200.527832,125.500526 200.486740,125.514877 200.527832,125.500526 
z"/>
<path fill="#3BD3D5" opacity="1.000000" stroke="none" 
	d="
M236.804047,181.012238 
	C236.326706,192.570358 225.461807,205.760376 213.411148,207.749084 
	C212.075180,206.709320 211.206528,205.927933 210.258972,205.078110 
	C210.180054,205.009674 209.973129,204.980865 209.973114,204.980865 
	C214.515747,202.632812 219.290466,200.638275 223.541962,197.846848 
	C228.805771,194.390793 230.240509,188.386887 232.450195,182.362030 
	C234.179047,181.644379 235.491547,181.328308 236.804047,181.012238 
z"/>
<path fill="#26938C" opacity="1.000000" stroke="none" 
	d="
M184.605377,156.115479 
	C185.513809,156.498520 186.117081,157.019821 186.870453,157.803543 
	C184.728836,161.957138 181.828415,165.622635 180.283020,169.790543 
	C177.745102,176.635208 178.771301,183.591553 181.599762,190.643524 
	C180.587326,191.750046 179.754654,192.435822 178.921982,193.121597 
	C172.046509,182.483185 173.808609,165.736404 184.605377,156.115479 
z"/>
<path fill="#2FBFBF" opacity="1.000000" stroke="none" 
	d="
M217.118454,170.930511 
	C221.792282,176.519775 221.950424,179.996796 217.823441,186.429794 
	C214.905746,190.977783 208.655319,193.444534 203.458664,192.105667 
	C202.218918,191.786240 200.973312,191.489532 199.379044,190.663757 
	C199.297836,189.112915 199.567978,188.080719 199.838120,187.048508 
	C203.186111,190.470108 206.810638,188.939957 210.126709,187.270950 
	C214.665039,184.986786 216.442520,180.949539 215.909302,175.305374 
	C215.621429,174.425125 215.425476,174.195892 215.196609,173.994781 
	C214.869400,173.530029 214.542206,173.065277 214.514069,172.244492 
	C215.581573,171.569138 216.350021,171.249832 217.118454,170.930511 
z"/>
<path fill="#239E95" opacity="1.000000" stroke="none" 
	d="
M216.939041,153.056961 
	C214.157379,152.445343 211.375702,151.833725 208.410324,151.181717 
	C206.807266,157.103195 212.134415,155.812744 214.553787,157.756958 
	C213.963943,159.059769 213.486298,159.932709 213.008636,160.805649 
	C210.742691,160.305161 207.691803,158.141602 207.784164,163.709045 
	C206.409622,164.849640 205.279861,165.437271 204.150101,166.024902 
	C204.150101,159.778458 204.150101,153.532013 204.150101,146.335892 
	C209.158783,147.442551 213.395615,148.378662 217.630219,149.901199 
	C217.398361,151.344086 217.168701,152.200516 216.939041,153.056961 
z"/>
<path fill="#2CAEA9" opacity="1.000000" stroke="none" 
	d="
M204.092026,166.422333 
	C205.279861,165.437271 206.409622,164.849640 207.819000,164.101364 
	C211.071655,166.036514 214.044678,168.132294 217.068085,170.579300 
	C216.350021,171.249832 215.581573,171.569138 214.508514,171.956360 
	C212.438599,170.708878 210.673325,169.393509 207.627686,167.124100 
	C208.110855,171.162903 208.664185,173.773438 208.645096,176.379776 
	C208.633530,177.958267 208.006058,179.720535 207.099854,181.009842 
	C206.746277,181.512909 204.123718,181.337189 203.834885,180.787491 
	C203.139145,179.463287 202.946259,177.721664 203.028870,176.173935 
	C203.195786,173.046906 203.680374,169.936813 204.092026,166.422333 
z"/>
<path fill="#2B8276" opacity="1.000000" stroke="none" 
	d="
M173.809448,75.027527 
	C173.430267,73.843285 173.051086,72.659035 172.527390,71.023422 
	C172.079117,71.687637 171.774124,72.139519 171.315460,72.782883 
	C170.895584,65.761803 172.643631,59.425812 178.164246,54.248486 
	C182.823135,49.879292 187.812332,48.984398 193.683960,51.857807 
	C193.508682,52.995609 193.235733,53.547783 192.573608,54.035336 
	C186.231277,52.012150 179.613449,54.322544 177.057755,60.401836 
	C175.153427,64.931686 174.834473,70.128021 173.809448,75.027527 
z"/>
<path fill="#318D83" opacity="1.000000" stroke="none" 
	d="
M156.665466,88.071320 
	C157.198318,88.763565 157.430054,89.632286 157.736954,91.083908 
	C151.801010,99.256866 151.604630,107.022354 156.804504,115.031342 
	C155.971298,115.424103 155.442917,115.745384 154.914536,116.066666 
	C148.379471,108.814056 148.175629,98.383179 154.395767,91.034126 
	C155.127655,90.169411 155.711731,89.179611 156.665466,88.071320 
z"/>
<path fill="#14B1AE" opacity="1.000000" stroke="none" 
	d="
M300.142944,228.704620 
	C302.796936,231.055786 302.166748,233.608826 300.065643,234.695084 
	C298.298798,235.608536 295.202545,235.585388 293.585632,234.565140 
	C292.550537,233.912003 293.134033,230.693619 292.991882,228.625229 
	C295.288269,228.556778 297.584686,228.488342 300.142944,228.704620 
z"/>
<path fill="#13B3B0" opacity="1.000000" stroke="none" 
	d="
M109.800316,227.060730 
	C111.922585,228.559113 113.650558,230.047592 115.378540,231.536057 
	C115.320908,232.165405 115.263283,232.794769 115.205658,233.424118 
	C112.602715,234.189438 110.024323,235.298279 107.380196,235.487198 
	C106.688179,235.536652 104.812317,232.350403 105.210632,231.317505 
	C105.869110,229.609909 107.933861,228.444611 109.800316,227.060730 
z"/>
<path fill="#318D83" opacity="1.000000" stroke="none" 
	d="
M192.962784,54.099953 
	C193.235733,53.547783 193.508682,52.995609 193.914398,52.165508 
	C198.423218,55.508862 198.931641,59.236290 195.424347,63.015732 
	C193.276245,65.330536 190.955734,67.485359 188.421936,69.864754 
	C187.332779,70.000809 186.534332,69.984131 185.493576,69.655273 
	C187.280487,67.285660 189.191925,65.092659 191.367111,63.203297 
	C194.449142,60.526279 194.954941,57.577122 192.962784,54.099953 
z"/>
<path fill="#2FA19A" opacity="1.000000" stroke="none" 
	d="
M191.959961,182.097549 
	C189.958832,176.453110 191.363388,171.675430 197.374786,167.215271 
	C196.864517,172.849976 196.446442,177.466736 195.826080,182.340271 
	C194.402542,182.430527 193.181244,182.264038 191.959961,182.097549 
z"/>
<path fill="#2FBFBF" opacity="1.000000" stroke="none" 
	d="
M188.066833,198.968552 
	C194.555542,202.769058 201.243698,205.873550 209.524078,204.984924 
	C209.973129,204.980865 210.180054,205.009674 209.862000,205.241272 
	C206.144775,205.686981 202.747681,205.948761 199.345657,206.097778 
	C197.222549,206.190765 195.091995,206.113556 192.964783,206.112732 
	C190.860016,204.778397 188.755249,203.444077 186.284058,201.691299 
	C184.912720,198.899292 186.064850,198.537598 188.066833,198.968552 
z"/>
<path fill="#36C6C7" opacity="1.000000" stroke="none" 
	d="
M236.883423,180.574814 
	C235.491547,181.328308 234.179047,181.644379 232.528915,181.985260 
	C232.153107,181.826096 232.114929,181.642151 232.291595,181.031265 
	C232.656754,180.376419 232.812653,180.152420 232.974136,179.932312 
	C232.989975,179.765274 233.005814,179.598221 233.231537,179.016327 
	C233.349472,178.076721 233.257507,177.552002 233.165543,177.027267 
	C232.450577,174.302795 231.735611,171.578308 231.391846,168.434219 
	C232.777161,168.018097 233.791290,168.021576 234.805405,168.025070 
	C235.524551,172.062515 236.243683,176.099960 236.883423,180.574814 
z"/>
<path fill="#27D2D2" opacity="1.000000" stroke="none" 
	d="
M193.162292,206.444946 
	C195.091995,206.113556 197.222549,206.190765 199.345657,206.097778 
	C202.747681,205.948761 206.144775,205.686981 209.940918,205.309692 
	C211.206528,205.927933 212.075180,206.709320 213.032440,207.799957 
	C208.083328,208.069336 203.042282,208.120316 198.009903,207.935562 
	C196.447784,207.878220 194.909164,207.181290 193.162292,206.444946 
z"/>
<path fill="#33A9A3" opacity="1.000000" stroke="none" 
	d="
M217.113403,153.353821 
	C217.168701,152.200516 217.398361,151.344086 217.835632,150.223816 
	C221.625824,152.415268 225.208405,154.870544 228.553711,157.655487 
	C227.198639,158.350861 226.080856,158.716568 224.963058,159.082275 
	C222.404633,157.271744 219.846207,155.461212 217.113403,153.353821 
z"/>
<path fill="#36B9B5" opacity="1.000000" stroke="none" 
	d="
M225.104492,159.389389 
	C226.080856,158.716568 227.198639,158.350861 228.682159,157.967957 
	C229.047867,157.950745 229.009659,157.983170 229.118561,158.165085 
	C229.394745,158.593643 229.593079,158.812103 229.822464,159.002380 
	C231.531906,161.770950 233.241348,164.539520 234.878098,167.666580 
	C233.791290,168.021576 232.777161,168.018097 231.384155,168.036865 
	C229.085480,165.271591 227.165695,162.484055 225.104492,159.389389 
z"/>
<path fill="#2E948C" opacity="1.000000" stroke="none" 
	d="
M183.921097,172.947433 
	C185.181519,166.406174 187.785767,163.229233 191.844162,163.584305 
	C190.460785,167.637482 189.093292,171.644119 187.378082,175.544891 
	C185.993942,174.608505 184.957520,173.777969 183.921097,172.947433 
z"/>
<path fill="#2CAEA9" opacity="1.000000" stroke="none" 
	d="
M213.323914,160.949829 
	C213.486298,159.932709 213.963943,159.059769 214.741455,158.078094 
	C217.615799,159.742447 220.190308,161.515518 222.829498,163.917740 
	C222.231522,165.374054 221.568863,166.201202 220.906219,167.028351 
	C218.483887,165.050232 216.061554,163.072113 213.323914,160.949829 
z"/>
<path fill="#2E948C" opacity="1.000000" stroke="none" 
	d="
M154.933975,116.044571 
	C155.442917,115.745384 155.971298,115.424103 157.109024,115.179459 
	C161.485397,117.240448 165.252411,119.224792 169.019440,121.209137 
	C169.005432,121.930779 168.991425,122.652428 168.964874,123.734566 
	C164.849457,122.112511 160.746582,120.129959 156.257324,117.728165 
	C155.545502,116.880875 155.220078,116.452843 154.894638,116.024803 
	C154.894638,116.024803 154.953415,116.022469 154.933975,116.044571 
z"/>
<path fill="#36B9B5" opacity="1.000000" stroke="none" 
	d="
M195.717865,194.082520 
	C196.018570,195.255859 196.005814,196.277649 195.982727,197.682480 
	C192.994278,195.617844 190.016190,193.170135 187.250275,190.235443 
	C188.240707,189.188339 189.018982,188.628235 189.797272,188.068115 
	C191.666306,190.022400 193.535355,191.976669 195.717865,194.082520 
z"/>
<path fill="#33A9A3" opacity="1.000000" stroke="none" 
	d="
M189.762817,187.699280 
	C189.018982,188.628235 188.240707,189.188339 187.208557,189.884674 
	C185.661026,186.945312 184.367386,183.869736 183.330917,180.407990 
	C183.588104,180.021820 183.981293,179.999771 184.244415,180.116119 
	C185.353989,180.108978 186.200409,179.985504 187.046844,179.862030 
	C187.940689,182.351486 188.834534,184.840942 189.762817,187.699280 
z"/>
<path fill="#2CAEA9" opacity="1.000000" stroke="none" 
	d="
M187.940674,198.657120 
	C186.064850,198.537598 184.912720,198.899292 185.968903,201.546814 
	C183.757156,199.125641 181.494171,196.430496 179.076569,193.428467 
	C179.754654,192.435822 180.587326,191.750046 181.747971,190.992004 
	C182.075943,190.919754 182.036209,190.947342 182.137848,191.139084 
	C182.412415,191.583389 182.613754,191.810806 182.843521,192.013092 
	C184.500534,194.123947 186.157532,196.234818 187.940674,198.657120 
z"/>
<path fill="#2CAEA9" opacity="1.000000" stroke="none" 
	d="
M191.999146,182.450165 
	C193.181244,182.264038 194.402542,182.430527 195.881500,182.782166 
	C197.361099,184.115829 198.583008,185.264343 199.821518,186.730682 
	C199.567978,188.080719 199.297836,189.112915 199.031754,190.476700 
	C196.703323,188.139786 194.370819,185.471283 191.999146,182.450165 
z"/>
<path fill="#26938C" opacity="1.000000" stroke="none" 
	d="
M195.894363,88.030563 
	C196.936310,88.022751 197.978271,88.014931 199.410950,88.010475 
	C201.174194,90.754616 202.546707,93.495392 203.860367,96.600082 
	C203.040405,96.677383 202.279327,96.390778 200.920380,95.871361 
	C198.846451,93.102562 197.370407,90.566566 195.894363,88.030563 
z"/>
<path fill="#2E948C" opacity="1.000000" stroke="none" 
	d="
M166.607727,130.063477 
	C167.242264,131.248718 167.467758,132.382385 167.818481,133.842453 
	C164.625198,133.256500 161.306686,132.344162 157.988174,131.431824 
	C158.102768,130.778458 158.217377,130.125076 158.331970,129.471710 
	C160.954208,129.651779 163.576462,129.831833 166.607727,130.063477 
z"/>
<path fill="#36B9B5" opacity="1.000000" stroke="none" 
	d="
M221.050186,167.349396 
	C221.568863,166.201202 222.231522,165.374054 222.960892,164.224579 
	C224.355774,166.002930 225.683945,168.103622 227.043304,170.573639 
	C226.188995,171.501617 225.303497,172.060303 224.176849,172.831696 
	C223.021835,171.253082 222.108002,169.461746 221.050186,167.349396 
z"/>
<path fill="#239E95" opacity="1.000000" stroke="none" 
	d="
M187.032227,179.544678 
	C186.200409,179.985504 185.353989,180.108978 184.246887,179.674820 
	C183.973419,177.055130 183.960632,174.993073 183.947830,172.931015 
	C183.947830,172.931015 183.959198,172.972916 183.940155,172.960175 
	C184.957520,173.777969 185.993942,174.608505 187.060760,175.763763 
	C187.091171,176.088501 187.067551,176.028320 186.919189,176.175964 
	C186.791153,176.873672 186.811508,177.423737 186.831863,177.973816 
	C186.893784,178.391663 186.955688,178.809494 187.032227,179.544678 
z"/>
<path fill="#2E948C" opacity="1.000000" stroke="none" 
	d="
M183.611404,173.166199 
	C183.960632,174.993073 183.973419,177.055130 183.983765,179.558472 
	C183.981293,179.999771 183.588104,180.021820 183.391251,180.026184 
	C183.221252,177.820816 183.248108,175.611115 183.611404,173.166199 
z"/>
<path fill="#36B9B5" opacity="1.000000" stroke="none" 
	d="
M224.126205,174.396454 
	C224.306458,174.868546 224.409088,175.705261 224.349930,176.764328 
	C224.141632,176.244797 224.095108,175.502945 224.126205,174.396454 
z"/>
<path fill="#318D83" opacity="1.000000" stroke="none" 
	d="
M185.327011,75.914581 
	C185.242126,75.242287 185.448395,74.380669 185.879211,73.267624 
	C185.941879,73.919212 185.780014,74.822243 185.327011,75.914581 
z"/>
<path fill="#36B9B5" opacity="1.000000" stroke="none" 
	d="
M224.111572,179.377686 
	C224.291077,179.852951 224.391876,180.695587 224.332901,181.761536 
	C224.126373,181.238266 224.079620,180.491669 224.111572,179.377686 
z"/>
<path fill="#2E948C" opacity="1.000000" stroke="none" 
	d="
M186.901337,177.653885 
	C186.811508,177.423737 186.791153,176.873672 186.951385,176.178680 
	C187.078247,176.467163 187.024521,176.900558 186.901337,177.653885 
z"/>
<path fill="#318D83" opacity="1.000000" stroke="none" 
	d="
M154.936066,116.332703 
	C155.220078,116.452843 155.545502,116.880875 155.946228,117.571762 
	C155.673523,117.436615 155.325500,117.038612 154.936066,116.332703 
z"/>
<path fill="#2FA19A" opacity="1.000000" stroke="none" 
	d="
M180.063141,152.317230 
	C180.460434,152.186508 180.987762,152.337341 181.737320,152.652802 
	C181.370758,152.744537 180.781952,152.671646 180.063141,152.317230 
z"/>
<path fill="#3BD3D5" opacity="1.000000" stroke="none" 
	d="
M233.101013,177.346558 
	C233.257507,177.552002 233.349472,178.076721 233.311996,178.777832 
	C233.133881,178.524750 233.085190,178.095306 233.101013,177.346558 
z"/>
<path fill="#36B9B5" opacity="1.000000" stroke="none" 
	d="
M227.843933,171.739105 
	C227.577072,171.807571 227.379257,171.584656 227.133057,171.120361 
	C227.322067,171.102890 227.598175,171.292480 227.843933,171.739105 
z"/>
<path fill="#3BD3D5" opacity="1.000000" stroke="none" 
	d="
M232.759064,180.025726 
	C232.812653,180.152420 232.656754,180.376419 232.378448,180.763184 
	C232.109055,180.566956 232.206894,180.299316 232.759064,180.025726 
z"/>
<path fill="#33A9A3" opacity="1.000000" stroke="none" 
	d="
M229.848175,158.745285 
	C229.593079,158.812103 229.394745,158.593643 229.133728,158.146149 
	C229.317932,158.126251 229.595901,158.307220 229.848175,158.745285 
z"/>
<path fill="#2CAEA9" opacity="1.000000" stroke="none" 
	d="
M215.158661,174.255798 
	C215.425476,174.195892 215.621429,174.425125 215.871887,174.891632 
	C215.679749,174.906128 215.400223,174.711472 215.158661,174.255798 
z"/>
<path fill="#26938C" opacity="1.000000" stroke="none" 
	d="
M182.866287,191.752594 
	C182.613754,191.810806 182.412415,191.583389 182.151062,191.120483 
	C182.338104,191.104126 182.613571,191.298111 182.866287,191.752594 
z"/>
<path fill="#000000" opacity="1.000000" stroke="none" 
	d="
M75.948151,248.004181 
	C79.906029,248.650513 84.696503,246.984329 85.017464,253.165771 
	C85.224541,257.153961 83.124611,259.851501 79.114365,260.023529 
	C76.982414,260.114990 74.843315,260.039734 71.971100,260.039734 
	C71.971100,256.918060 72.138374,254.002777 71.923927,251.115860 
	C71.710663,248.244720 73.180496,247.746490 75.948151,248.004181 
z"/>
<path fill="#000000" opacity="1.000000" stroke="none" 
	d="
M72.043381,234.292542 
	C75.112061,233.742538 78.273232,233.055405 81.051308,233.799164 
	C82.562248,234.203690 84.528999,237.224960 84.277077,238.728745 
	C84.003082,240.364243 81.604362,242.259048 79.750626,242.855606 
	C77.536507,243.568146 74.917877,243.023651 71.976189,243.023651 
	C71.976189,239.960266 71.976189,237.356049 72.043381,234.292542 
z"/>
<path fill="#000000" opacity="1.000000" stroke="none" 
	d="
M260.234558,259.921509 
	C259.409882,256.154510 259.042236,252.467239 258.586609,247.897644 
	C262.275116,248.149185 265.290833,248.248413 268.279449,248.586853 
	C271.668732,248.970673 273.128601,251.337738 272.908569,254.417694 
	C272.670807,257.746124 270.495880,259.707764 267.137512,259.982819 
	C265.002716,260.157684 262.841156,260.006256 260.234558,259.921509 
z"/>
<path fill="#000000" opacity="1.000000" stroke="none" 
	d="
M261.166809,243.011963 
	C259.894043,239.968475 259.081757,236.943008 257.991791,232.883301 
	C262.192688,233.114792 265.328735,232.641357 267.878662,233.649857 
	C269.649780,234.350342 271.797089,237.231812 271.598602,238.875977 
	C271.409973,240.438126 268.549988,242.009018 266.562531,242.909042 
	C265.182281,243.534103 263.290527,243.029770 261.166809,243.011963 
z"/>
<path fill="#000000" opacity="1.000000" stroke="none" 
	d="
M188.241394,244.877502 
	C185.041550,244.984497 182.256256,244.984497 179.233215,244.984497 
	C179.233215,240.971130 179.233215,237.363678 179.233215,233.367157 
	C183.338943,233.038620 187.835052,231.474152 190.869949,235.717361 
	C193.359207,239.197647 191.356094,242.221191 188.241394,244.877502 
z"/>
<path fill="#000000" opacity="1.000000" stroke="none" 
	d="
M222.879868,250.956299 
	C221.661896,250.315353 220.044357,249.354767 220.168381,248.995667 
	C221.457870,245.262100 223.027481,241.625290 224.983658,236.821381 
	C226.803299,241.928177 228.186371,245.809753 229.569992,249.692841 
	C227.416809,250.112091 225.352798,250.513977 222.879868,250.956299 
z"/>
<path fill="#000000" opacity="1.000000" stroke="none" 
	d="
M195.580307,87.876900 
	C197.370407,90.566566 198.846451,93.102562 200.616501,95.831192 
	C200.959595,96.465996 201.008682,96.908157 201.047165,98.016304 
	C201.343292,99.484459 201.650024,100.286629 201.956757,101.088799 
	C200.865402,112.781525 196.596451,117.542839 184.649155,119.938339 
	C179.861862,120.898224 174.846161,120.719109 169.476929,121.133789 
	C165.252411,119.224792 161.485397,117.240448 157.413849,115.107979 
	C151.604630,107.022354 151.801010,99.256866 157.960236,91.341774 
	C159.811172,89.760277 161.393387,88.265526 163.255173,87.323051 
	C164.733826,86.574524 166.554581,86.501770 168.223450,86.128983 
	C168.440643,86.621849 168.657837,87.114723 168.875031,87.607590 
	C169.567764,86.210670 170.260513,84.813751 171.117493,83.085632 
	C172.440811,84.053909 173.543839,84.861008 174.881836,85.840027 
	C176.551926,81.695358 178.673645,82.854904 182.291260,83.294044 
	C187.222015,83.892593 191.078079,85.893837 195.580307,87.876900 
M168.978287,109.509727 
	C167.776581,108.259315 166.574890,107.008904 165.373199,105.758492 
	C165.047638,106.088753 164.722061,106.419006 164.396500,106.749260 
	C166.533829,112.621674 171.905899,116.946785 177.514450,116.976059 
	C183.218079,117.005844 189.324738,116.750351 191.587097,110.365326 
	C193.125778,106.022705 196.130356,101.023712 190.943222,95.607826 
	C189.138336,101.678345 191.983124,108.610207 185.938736,112.370644 
	C181.205429,115.315414 174.788925,114.301201 168.978287,109.509727 
M181.505676,101.452110 
	C180.368561,103.152061 179.075363,104.782791 178.258316,106.624718 
	C178.132065,106.909325 180.309052,108.927330 181.209763,108.787148 
	C182.526489,108.582222 184.703522,107.061073 184.635559,106.260300 
	C184.503403,104.702744 183.066452,103.255898 181.505676,101.452110 
z"/>
<path fill="#000000" opacity="1.000000" stroke="none" 
	d="
M197.092194,129.642273 
	C197.345154,132.890762 198.166794,135.914429 197.570282,138.626129 
	C195.451660,148.257202 192.603134,149.764160 179.449677,148.947372 
	C172.494247,145.051407 168.501923,135.006470 172.485504,125.504349 
	C178.291656,124.354591 184.010590,122.976456 189.808044,122.147552 
	C194.952209,121.412041 195.686569,125.792412 197.092194,129.642273 
z"/>
<path fill="#26938C" opacity="1.000000" stroke="none" 
	d="
M201.960663,100.762939 
	C201.650024,100.286629 201.343292,99.484459 201.106812,98.344971 
	C201.439575,98.817467 201.702057,99.627266 201.960663,100.762939 
z"/>
<path fill="#000000" opacity="1.000000" stroke="none" 
	d="
M192.573608,54.035339 
	C194.954941,57.577122 194.449142,60.526279 191.367111,63.203297 
	C189.191925,65.092659 187.280487,67.285660 185.094330,69.643890 
	C184.937393,69.944672 184.983917,69.974747 184.748932,70.044006 
	C184.407852,70.405418 184.301743,70.697586 184.195648,70.989746 
	C183.450897,72.774994 183.028336,74.819427 181.863831,76.266998 
	C180.854385,77.521858 179.100983,78.457756 177.501953,78.891411 
	C175.266098,79.497772 173.543365,78.729591 173.873795,75.443893 
	C174.834473,70.128021 175.153427,64.931686 177.057755,60.401836 
	C179.613449,54.322544 186.231277,52.012150 192.573608,54.035339 
z"/>
<path fill="#000000" opacity="1.000000" stroke="none" 
	d="
M160.481445,83.942413 
	C154.526779,82.307770 148.871231,80.836357 143.353500,78.959709 
	C141.401276,78.295731 139.785248,76.643288 138.015732,75.442116 
	C139.538773,73.567314 140.733200,71.211815 142.644623,69.905151 
	C149.155365,65.454369 158.171051,68.736565 164.648468,77.943329 
	C165.242599,79.164742 165.536774,80.218094 165.901016,81.522308 
	C164.222061,82.325531 162.528458,83.135757 160.481445,83.942413 
z"/>
<path fill="#318D83" opacity="1.000000" stroke="none" 
	d="
M184.350189,70.830353 
	C184.301743,70.697586 184.407852,70.405418 184.744919,70.016785 
	C184.853088,70.192032 184.696045,70.442253 184.350189,70.830353 
z"/>
<path fill="#2FA19A" opacity="1.000000" stroke="none" 
	d="
M200.507294,125.507706 
	C200.486740,125.514877 200.527832,125.500526 200.507294,125.507706 
z"/>
<path fill="#2E8077" opacity="1.000000" stroke="none" 
	d="
M169.234222,109.775696 
	C174.788925,114.301201 181.205429,115.315414 185.938736,112.370644 
	C191.983124,108.610207 189.138336,101.678345 190.943222,95.607826 
	C196.130356,101.023712 193.125778,106.022705 191.587097,110.365326 
	C189.324738,116.750351 183.218079,117.005844 177.514450,116.976059 
	C171.905899,116.946785 166.533829,112.621674 164.396500,106.749260 
	C164.722061,106.419006 165.047638,106.088753 165.373199,105.758492 
	C166.574890,107.008904 167.776581,108.259315 169.234222,109.775696 
z"/>
<path fill="#2E8077" opacity="1.000000" stroke="none" 
	d="
M181.837830,101.607651 
	C183.066452,103.255898 184.503403,104.702744 184.635559,106.260300 
	C184.703522,107.061073 182.526489,108.582222 181.209763,108.787148 
	C180.309052,108.927330 178.132065,106.909325 178.258316,106.624718 
	C179.075363,104.782791 180.368561,103.152061 181.837830,101.607651 
z"/>
</svg>