<svg xmlns="http://www.w3.org/2000/svg" viewBox="0 0 88 88"><title>Artboard-23</title><g id="Cargo_Automobile_forklift" data-name="Cargo Automobile forklift"><path d="M15,42h7a5.0059,5.0059,0,0,1,5,5,1,1,0,0,0,1,1H46.39a1,1,0,0,0,.8985-1.44l-13.71-28A1,1,0,0,0,32.68,18H15a1,1,0,0,0-1,1V41A1,1,0,0,0,15,42Zm1-2V32.127A4.0062,4.0062,0,0,1,19,36v4Zm20,6V39.6182l4.5483-2.2744L44.7866,46ZM32.0562,20l7.6124,15.5471-4.4714,2.236L32.4141,35l1.2929-1.293a1,1,0,0,0-1.414-1.414l-4,4a1,1,0,0,0,1.414,1.414L31,36.4141l3,3V46H28.9287A7.0109,7.0109,0,0,0,22,40H21V36a6.0046,6.0046,0,0,0-5-5.91V20Z" style="fill:#1d1b1e"/><path d="M13,64a3,3,0,1,0,3,3A3.0033,3.0033,0,0,0,13,64Zm0,4a1,1,0,1,1,1-1A1.0009,1.0009,0,0,1,13,68Z" style="fill:#1d1b1e"/><path d="M39,64a3,3,0,1,0,3,3A3.0033,3.0033,0,0,0,39,64Zm0,4a1,1,0,1,1,1-1A1.0009,1.0009,0,0,1,39,68Z" style="fill:#1d1b1e"/><path d="M87,62H85V27a1,1,0,0,0-1-1H64a1,1,0,0,0-1,1V62H61V17a1,1,0,0,0-1-1H56a1,1,0,0,0-1,1V54H52V47a1,1,0,0,0-.1055-.4473l-16-32A1,1,0,0,0,35,14H11a1,1,0,0,0-1,1V40H1a1,1,0,0,0-1,1V67a1,1,0,0,0,1,1H6.08a6.9906,6.9906,0,0,0,13.84,0H32.08a6.9906,6.9906,0,0,0,13.84,0H51a1,1,0,0,0,1-1V60h3v7a1,1,0,0,0,1,1H83a5.0059,5.0059,0,0,0,5-5A1,1,0,0,0,87,62ZM76,51.5859,74.707,50.293a.9995.9995,0,0,0-1.414,0L72,51.5859V46h4ZM65,33h5v3a1,1,0,0,0,1.707.707L74,34.4141l2.293,2.2929A1,1,0,0,0,78,36V33h5V44H65Zm0,13h5v3H65Zm13,0h5v3H78Zm5-15H78V28h5Zm-7,2.5859L74.707,32.293a.9995.9995,0,0,0-1.414,0L72,33.5859V28h4ZM65,28h5v3H65Zm0,23h5v3a1,1,0,0,0,1.707.707L74,52.4141l2.293,2.2929A1,1,0,0,0,78,54V51h5V62H65ZM11,42a1,1,0,0,0,1-1V16H34.3818L50,47.2363V62H43.89a6.9768,6.9768,0,0,0-9.779,0H17.89a6.9768,6.9768,0,0,0-9.779,0H2V42Zm8.3223,22H32.6777a7.2694,7.2694,0,0,0-.6064,2H19.9287A7.2694,7.2694,0,0,0,19.3223,64ZM2,64H6.6777a7.2694,7.2694,0,0,0-.6064,2H2Zm11,8a5.0059,5.0059,0,0,1-5-5,5,5,0,0,1,10,0A5.0059,5.0059,0,0,1,13,72Zm26,0a5.0059,5.0059,0,0,1-5-5,4.99,4.99,0,0,1,9.21-2.6743A4.9457,4.9457,0,0,1,44,67,5.0059,5.0059,0,0,1,39,72Zm11-6H45.9287a7.2668,7.2668,0,0,0-.6064-2H50Zm2-8V56h3v2Zm31,8H57V18h2V63a1,1,0,0,0,1,1H85.8291A3.0062,3.0062,0,0,1,83,66Z" style="fill:#1d1b1e"/></g></svg>